<?xml version="1.0" encoding="UTF-8" standalone="no"?>
<svg
   width="212.94997"
   height="74.999252"
   viewBox="0 0 212.94997 74.999252"
   fill="none"
   version="1.1"
   id="svg15"
   xmlns="http://www.w3.org/2000/svg"
   xmlns:svg="http://www.w3.org/2000/svg">
  <g
     clip-path="url(#clip0_11_11)"
     id="g15"
     transform="translate(-0.993041)">
    <path
       fill-rule="evenodd"
       clip-rule="evenodd"
       d="m 42.1195,0.176075 1.1948,5.815695 c 2.3118,0.3538 4.5779,0.96112 6.757,1.8109 l 3.9425,-4.43964 c 2.2061,1.003 4.3101,2.21757 6.2819,3.62672 L 58.422,12.6236 c 1.8253,1.4626 3.484,3.1215 4.9466,4.9467 l 5.6339,-1.8732 c 1.4092,1.9718 2.6237,4.0753 3.6267,6.2813 l -4.4391,3.9426 c 0.8493,2.1796 1.4567,4.4451 1.8105,6.7575 l 5.8162,1.1942 c 0.2342,2.4122 0.2342,4.8415 0,7.2536 l -5.8162,1.1948 c -0.3538,2.3118 -0.9612,4.5779 -1.8105,6.7569 l 4.4391,3.9425 c -1.003,2.2066 -2.2175,4.3102 -3.6267,6.282 l -5.6339,-1.8732 c -1.4626,1.8252 -3.1213,3.484 -4.9466,4.9467 l 1.8737,5.6338 c -1.9718,1.4092 -4.0758,2.6237 -6.2819,3.6267 l -3.9425,-4.4396 c -2.1791,0.8498 -4.4452,1.4571 -6.757,1.8109 l -1.1948,5.8158 c -2.4121,0.2342 -4.8414,0.2342 -7.2535,0 l -1.1948,-5.8158 c -2.3118,-0.3538 -4.5779,-0.9611 -6.757,-1.8109 l -3.9425,4.4396 C 20.7656,70.6335 18.6616,69.419 16.6898,68.0098 L 18.5634,62.376 C 16.7377,60.9133 15.079,59.2545 13.6169,57.4293 L 7.98245,59.3025 C 6.57385,57.3307 5.35921,55.2271 4.35566,53.0205 L 8.79537,49.078 C 7.94558,46.899 7.33874,44.6329 6.98494,42.3211 L 1.1687,41.1263 c -0.234212,-2.4121 -0.234212,-4.8414 0,-7.2536 L 6.98494,32.6785 C 7.33874,30.3661 7.94558,28.1006 8.79537,25.921 L 4.35566,21.9784 c 1.00355,-2.206 2.21819,-4.3095 3.62679,-6.2813 l 5.63445,1.8732 c 1.4621,-1.8252 3.1208,-3.4841 4.9465,-4.9467 L 16.6898,6.98975 C 18.6616,5.5806 20.7656,4.36603 22.9717,3.36303 l 3.9425,4.43964 c 2.1791,-0.84978 4.4452,-1.4571 6.757,-1.8109 L 34.866,0.176075 c 2.4121,-0.2347666 4.8414,-0.2347666 7.2535,0 z M 39.1645,63.1938 c 0.1797,-0.005 0.3533,0.0634 0.4812,0.189 0.1284,0.1251 0.2,0.2971 0.1995,0.4767 -0.0055,1.3954 -0.0183,4.4126 -0.0183,4.4126 -0.0022,0.6035 0.3517,1.1512 0.9022,1.3976 0.5506,0.2463 1.1948,0.1449 1.6428,-0.259 l 10.6466,-9.5968 c 0.3201,-0.2888 0.5031,-0.6994 0.5037,-1.1309 v -0.1272 c 0,-0.1312 0.0628,-0.2547 0.1686,-0.3324 6.3679,-4.6799 10.5044,-12.2227 10.5044,-20.7239 0,-7.0127 -2.815,-13.374 -7.3759,-18.0131 -0.1251,-0.1268 -0.1432,-0.3235 -0.0434,-0.4712 0.1802,-0.2662 0.2705,-0.5825 0.2601,-0.9038 L 56.9742,16.219 c -0.0259,-0.7842 -0.6425,-1.4208 -1.4256,-1.4709 l -5.8362,-0.3753 c -3.3909,-1.65 -7.1983,-2.5753 -11.2197,-2.5753 -4.04,0 -7.8641,0.9342 -11.2666,2.5979 l -5.4805,0.3527 c -0.7831,0.0501 -1.3999,0.6867 -1.4258,1.4709 l -0.0616,1.8924 c -0.0105,0.3213 0.0274,0.5594 0.1988,0.8129 0,0 0.0066,0.0099 0.0171,0.0248 0.054,0.0799 0.0431,0.1869 -0.0253,0.2541 -4.7267,4.6617 -7.6585,11.1398 -7.6585,18.2963 0,14.1858 11.5167,25.7026 25.7024,25.7026 0.2249,0 0.4486,-0.0028 0.6718,-0.0083 z"
       fill="#f3f3f3"
       id="path1" />
    <path
       fill-rule="evenodd"
       clip-rule="evenodd"
       d="m 25.2699,30.8613 -0.0071,-7.5502 -3.4816,-5.1497 0.0619,-1.8922 13.8825,-0.893 0.0633,15.4851 h 5.716 l 0.0633,-15.4851 13.8824,0.893 0.062,1.8922 -3.4817,5.1497 -0.0334,35.3707 -10.6462,9.5965 0.1261,-30.7785 h -5.6613 l 0.0043,1.0012 H 35.75 L 35.8275,58.5309 25.1683,51.6004 V 30.8613 Z"
       fill="#f3f3f3"
       id="path2" />
    <path
       fill-rule="evenodd"
       clip-rule="evenodd"
       d="m 104.452,12.0063 v 22.7049 h -4.39 v -9.1577 h -6.8115 v 9.1577 H 88.861 V 12.0063 h 4.3895 v 9.1576 h 6.8115 v -9.1576 z"
       fill="#f3f3f3"
       id="path3" />
    <path
       fill-rule="evenodd"
       clip-rule="evenodd"
       d="m 129.486,12.0063 -6.009,12.9115 v 9.7934 h -4.39 v -9.7934 l -6.009,-12.9115 h 4.843 l 3.361,7.205 3.36,-7.205 z"
       fill="#f3f3f3"
       id="path4" />
    <path
       fill-rule="evenodd"
       clip-rule="evenodd"
       d="m 151.342,12.0063 v 4.3896 h -4.465 v 18.3153 h -4.405 V 16.3959 h -4.465 v -4.3896 z"
       fill="#f3f3f3"
       id="path5" />
    <path
       fill-rule="evenodd"
       clip-rule="evenodd"
       d="m 167.521,12.0063 5.873,22.7049 h -4.526 L 167.975,31.26 h -6.13 l -0.893,3.4512 h -4.526 l 5.873,-22.7049 z m -4.526,14.849 h 3.83 l -1.923,-7.4018 z"
       fill="#f3f3f3"
       id="path6" />
    <path
       fill-rule="evenodd"
       clip-rule="evenodd"
       d="m 186.576,12.0063 v 18.3152 h 7.281 v 4.3897 h -11.67 V 12.0063 Z"
       fill="#f3f3f3"
       id="path7" />
    <path
       fill-rule="evenodd"
       clip-rule="evenodd"
       d="m 213.942,12.0063 v 4.3896 h -7.281 v 4.768 h 5.586 v 4.3896 h -5.586 v 4.768 h 7.281 v 4.3897 h -11.67 V 12.0063 Z"
       fill="#f3f3f3"
       id="path8" />
    <path
       fill-rule="evenodd"
       clip-rule="evenodd"
       d="m 108.372,39.6845 v 22.7049 h -4.405 V 50.9613 L 99.2901,61.7082 H 97.9429 L 93.2505,50.9613 V 62.3894 H 88.861 V 39.6845 h 4.2685 l 5.4794,12.5785 5.4941,-12.5785 z"
       fill="#f3f3f3"
       id="path9" />
    <path
       fill-rule="evenodd"
       clip-rule="evenodd"
       d="m 120.238,43.62 c -0.938,0 -1.746,0.3331 -2.422,0.9991 -0.676,0.6761 -1.014,1.4834 -1.014,2.4218 v 7.9922 c 0,0.9384 0.338,1.7458 1.014,2.4218 0.676,0.6761 1.484,1.0142 2.422,1.0142 0.949,0 1.756,-0.3381 2.422,-1.0142 0.676,-0.6659 1.014,-1.4733 1.014,-2.4218 v -7.9922 c 0,-0.9384 -0.338,-1.7457 -1.014,-2.4218 -0.666,-0.666 -1.473,-0.9991 -2.422,-0.9991 z m 0,-4.4046 c 2.159,0 4.006,0.7669 5.54,2.3007 1.524,1.5338 2.286,3.3755 2.286,5.5248 v 7.9922 c 0,2.1494 -0.762,3.991 -2.286,5.5248 -1.534,1.5339 -3.381,2.3008 -5.54,2.3008 -2.149,0 -3.991,-0.7669 -5.525,-2.3008 -1.534,-1.5338 -2.301,-3.3754 -2.301,-5.5248 v -7.9922 c 0,-2.1493 0.767,-3.991 2.301,-5.5248 1.534,-1.5338 3.376,-2.3007 5.525,-2.3007 z"
       fill="#f3f3f3"
       id="path10" />
    <path
       fill-rule="evenodd"
       clip-rule="evenodd"
       d="m 139.869,39.6845 c 2.089,0 3.88,0.7468 5.373,2.2402 1.494,1.4834 2.241,3.2746 2.241,5.3735 v 7.7348 c 0,2.0182 -0.722,3.7489 -2.165,5.1918 -1.443,1.4431 -3.179,2.1646 -5.207,2.1646 h -7.856 V 39.6845 Z m -3.209,4.3896 v 13.9257 h 3.451 c 0.818,0 1.514,-0.2926 2.089,-0.878 0.585,-0.5852 0.878,-1.2815 0.878,-2.0888 v -7.7348 c 0,-0.888 -0.313,-1.6448 -0.939,-2.2705 -0.635,-0.6357 -1.392,-0.9536 -2.27,-0.9536 z"
       fill="#f3f3f3"
       id="path11" />
    <path
       fill-rule="evenodd"
       clip-rule="evenodd"
       d="m 158.743,39.6845 c 2.089,0 3.88,0.7468 5.374,2.2402 1.493,1.4834 2.24,3.2746 2.24,5.3735 v 7.7348 c 0,2.0182 -0.721,3.7489 -2.164,5.1918 -1.444,1.4431 -3.179,2.1646 -5.207,2.1646 H 151.13 V 39.6845 Z m -3.209,4.3896 v 13.9257 h 3.452 c 0.817,0 1.513,-0.2926 2.088,-0.878 0.586,-0.5852 0.878,-1.2815 0.878,-2.0888 v -7.7348 c 0,-0.888 -0.313,-1.6448 -0.938,-2.2705 -0.636,-0.6357 -1.393,-0.9536 -2.271,-0.9536 z"
       fill="#f3f3f3"
       id="path12" />
    <path
       d="m 174.408,39.6845 h -4.405 v 22.7049 h 4.405 z"
       fill="#f3f3f3"
       id="path13" />
    <path
       fill-rule="evenodd"
       clip-rule="evenodd"
       d="m 194.236,39.6845 v 22.7049 h -4.254 l -6.342,-12.639 v 12.639 h -4.389 V 39.6845 h 4.253 l 6.327,12.6391 V 39.6845 Z"
       fill="#f3f3f3"
       id="path14" />
    <path
       fill-rule="evenodd"
       clip-rule="evenodd"
       d="m 206.102,62.8587 c -2.149,0 -3.991,-0.7669 -5.525,-2.3008 -1.534,-1.5338 -2.301,-3.3754 -2.301,-5.5248 v -7.9922 c 0,-2.1493 0.767,-3.991 2.301,-5.5248 1.534,-1.5338 3.376,-2.3007 5.525,-2.3007 2.997,0 5.318,1.4127 6.963,4.2382 l -1.907,1.0898 -1.908,1.105 c -0.787,-1.3522 -1.836,-2.0284 -3.148,-2.0284 -0.938,0 -1.746,0.3331 -2.422,0.9991 -0.676,0.6761 -1.014,1.4834 -1.014,2.4218 v 7.9922 c 0,0.9384 0.338,1.7458 1.014,2.4218 0.676,0.6761 1.484,1.0142 2.422,1.0142 0.232,0 0.525,-0.0303 0.878,-0.0908 0.414,-0.0707 0.792,-0.1665 1.135,-0.2876 0.939,-0.3129 1.408,-0.7115 1.408,-1.1958 v -3.6631 h -4.45 v -4.3896 h 8.87 v 13.5473 h -1.968 l -1.256,-0.6661 c -1.383,0.7569 -2.922,1.1353 -4.617,1.1353 z"
       fill="#f3f3f3"
       id="path15" />
  </g>
  <defs
     id="defs15">
    <clipPath
       id="clip0_11_11">
      <rect
         width="214"
         height="75"
         fill="#ffffff"
         id="rect15"
         x="0"
         y="0" />
    </clipPath>
  </defs>
</svg>
