<svg width="545" height="85" viewBox="0 0 545 85" fill="none" xmlns="http://www.w3.org/2000/svg">
<path d="M0 36.788C0 6.49309 6.50029 0 36.8288 0H48.2655C78.594 0 85.0943 6.49309 85.0943 36.788V48.212C85.0943 78.5068 78.594 85 48.2655 85H36.8288C6.50029 85 0 78.5068 0 48.212V36.788Z" fill="url(#paint0_linear_7882_9)"/>
<path d="M42.1389 9.28913C42.5195 9.06622 42.9903 9.06622 43.3709 9.28913L71.6206 25.83C71.9958 26.0497 72.2266 26.4527 72.2266 26.8885V58.2922C72.2266 58.73 71.9937 59.1351 71.6156 59.354L43.3659 75.7139C42.9878 75.9328 42.522 75.9328 42.1439 75.7139L13.8943 59.354C13.5162 59.1351 13.2832 58.73 13.2832 58.2922V26.8885C13.2832 26.4527 13.514 26.0497 13.8892 25.83L42.1389 9.28913ZM16.5399 28.0235V57.161L42.7549 72.3901L68.9702 57.161V28.0235L42.7549 12.606L16.5399 28.0235ZM65.9578 29.5322V55.7467L42.7549 68.9955L19.5522 55.7467V29.5322L42.7549 16.0007L65.9578 29.5322ZM22.6372 54.191L41.5329 65.0349V43.6295L22.6372 32.8798V54.191ZM44.2592 43.661V64.9408L63.0609 54.1603V32.7855L44.2592 43.661ZM39.5587 57.7743V61.1851L36.7384 59.5659V56.1713L39.5587 57.7743ZM48.9593 59.5659L46.1392 61.1851V57.7743L48.9593 56.1713V59.5659ZM27.5256 50.9851V54.3797L24.6114 52.7767V49.3821L27.5256 50.9851ZM61.0867 52.7767L58.1723 54.3797V50.9851L61.0867 49.3821V52.7767ZM34.4822 46.0816V52.3994L29.2178 49.4762V43.1584L34.4822 46.0816ZM56.48 49.4762L51.2158 52.3994V46.0816L56.48 43.1584V49.4762ZM39.6527 45.2329V48.8161L36.7384 47.2131V43.6299L39.6527 45.2329ZM48.9593 47.2131L46.0454 48.8161V45.2329L48.9593 43.6299V47.2131ZM27.5256 38.6322V42.0269L24.6114 40.4238V37.0291L27.5256 38.6322ZM61.0867 40.4237L58.1723 42.0269V38.632L61.0867 37.029V40.4237Z" fill="white"/>
<path d="M104.16 60V26.72H109.664L111.008 31.456C111.904 29.8773 113.141 28.5973 114.72 27.616C116.299 26.592 118.197 26.08 120.416 26.08C122.635 26.08 124.619 26.6133 126.368 27.68C128.117 28.7467 129.419 30.2187 130.272 32.096C131.083 30.432 132.363 29.024 134.112 27.872C135.904 26.6773 138.016 26.08 140.448 26.08C142.752 26.08 144.8 26.6773 146.592 27.872C148.427 29.024 149.835 30.6453 150.816 32.736C151.84 34.784 152.352 37.1307 152.352 39.776V60H144.992V40.48C144.992 38.176 144.395 36.2987 143.2 34.848C142.005 33.3973 140.448 32.672 138.528 32.672C136.608 32.672 135.029 33.4187 133.792 34.912C132.555 36.3627 131.936 38.2187 131.936 40.48V60H124.576V40.48C124.576 38.176 123.979 36.2987 122.784 34.848C121.589 33.3973 120.032 32.672 118.112 32.672C116.192 32.672 114.613 33.4187 113.376 34.912C112.139 36.3627 111.52 38.2187 111.52 40.48V60H104.16ZM176.22 60.64C172.806 60.64 169.734 59.9147 167.004 58.464C164.316 56.9707 162.204 54.9227 160.668 52.32C159.174 49.6747 158.428 46.688 158.428 43.36C158.428 40.032 159.174 37.0667 160.668 34.464C162.204 31.8187 164.316 29.7707 167.004 28.32C169.734 26.8267 172.806 26.08 176.22 26.08C179.633 26.08 182.684 26.8267 185.372 28.32C188.102 29.7707 190.214 31.8187 191.708 34.464C193.244 37.0667 194.012 40.032 194.012 43.36C194.012 46.688 193.244 49.6747 191.708 52.32C190.214 54.9227 188.102 56.9707 185.372 58.464C182.684 59.9147 179.633 60.64 176.22 60.64ZM176.22 53.92C179.206 53.92 181.638 52.96 183.516 51.04C185.393 49.0773 186.332 46.5173 186.332 43.36C186.332 40.2027 185.393 37.664 183.516 35.744C181.638 33.7813 179.206 32.8 176.22 32.8C173.233 32.8 170.801 33.7813 168.924 35.744C167.046 37.664 166.108 40.2027 166.108 43.36C166.108 46.5173 167.046 49.0773 168.924 51.04C170.801 52.96 173.233 53.92 176.22 53.92ZM214.746 60.64C211.631 60.64 208.837 59.9147 206.362 58.464C203.887 56.9707 201.946 54.9227 200.538 52.32C199.173 49.6747 198.49 46.688 198.49 43.36C198.49 40.032 199.173 37.0667 200.538 34.464C201.946 31.8187 203.887 29.7707 206.362 28.32C208.837 26.8267 211.631 26.08 214.746 26.08C217.434 26.08 219.823 26.6347 221.914 27.744C224.005 28.8107 225.711 30.1547 227.034 31.776V14.88H234.394V60H228.89L227.354 54.624C225.989 56.288 224.239 57.7173 222.106 58.912C219.973 60.064 217.519 60.64 214.746 60.64ZM216.538 54.048C219.653 54.048 222.17 53.0667 224.09 51.104C226.053 49.0987 227.034 46.5173 227.034 43.36C227.034 40.2027 226.053 37.6427 224.09 35.68C222.17 33.6747 219.653 32.672 216.538 32.672C213.466 32.672 210.97 33.6747 209.05 35.68C207.13 37.6427 206.17 40.2027 206.17 43.36C206.17 46.5173 207.13 49.0987 209.05 51.104C210.97 53.0667 213.466 54.048 216.538 54.048ZM250.715 60H243.355V26.72H250.715V60ZM247.067 21.984C245.702 21.984 244.592 21.5787 243.739 20.768C242.886 19.9147 242.459 18.8267 242.459 17.504C242.459 16.1813 242.886 15.0933 243.739 14.24C244.635 13.3867 245.744 12.96 247.067 12.96C248.39 12.96 249.478 13.3867 250.331 14.24C251.184 15.0933 251.611 16.1813 251.611 17.504C251.611 18.8267 251.184 19.9147 250.331 20.768C249.478 21.5787 248.39 21.984 247.067 21.984ZM268.948 26.72H278.868V33.12H268.948V60H261.588V33.12H256.148V26.72H261.588V24.992C261.588 21.7067 262.526 19.2107 264.404 17.504C266.324 15.7547 269.076 14.88 272.66 14.88H278.868L279.508 21.28H272.66C270.185 21.28 268.948 22.5173 268.948 24.992V26.72ZM298.282 60.64C294.869 60.64 291.797 59.9147 289.066 58.464C286.378 56.9707 284.266 54.9227 282.73 52.32C281.237 49.6747 280.49 46.688 280.49 43.36C280.49 40.032 281.237 37.0667 282.73 34.464C284.266 31.8187 286.378 29.7707 289.066 28.32C291.797 26.8267 294.869 26.08 298.282 26.08C301.695 26.08 304.746 26.8267 307.434 28.32C310.165 29.7707 312.277 31.8187 313.77 34.464C315.306 37.0667 316.074 40.032 316.074 43.36C316.074 46.688 315.306 49.6747 313.77 52.32C312.277 54.9227 310.165 56.9707 307.434 58.464C304.746 59.9147 301.695 60.64 298.282 60.64ZM298.282 53.92C301.269 53.92 303.701 52.96 305.578 51.04C307.455 49.0773 308.394 46.5173 308.394 43.36C308.394 40.2027 307.455 37.664 305.578 35.744C303.701 33.7813 301.269 32.8 298.282 32.8C295.295 32.8 292.863 33.7813 290.986 35.744C289.109 37.664 288.17 40.2027 288.17 43.36C288.17 46.5173 289.109 49.0773 290.986 51.04C292.863 52.96 295.295 53.92 298.282 53.92ZM330.153 60H322.793V14.88H330.153V60ZM353.121 60.64C350.006 60.64 347.212 59.9147 344.737 58.464C342.262 56.9707 340.321 54.9227 338.913 52.32C337.548 49.6747 336.865 46.688 336.865 43.36C336.865 40.032 337.548 37.0667 338.913 34.464C340.321 31.8187 342.262 29.7707 344.737 28.32C347.212 26.8267 350.006 26.08 353.121 26.08C355.809 26.08 358.198 26.6347 360.289 27.744C362.38 28.8107 364.086 30.1547 365.409 31.776V14.88H372.769V60H367.265L365.729 54.624C364.364 56.288 362.614 57.7173 360.481 58.912C358.348 60.064 355.894 60.64 353.121 60.64ZM354.913 54.048C358.028 54.048 360.545 53.0667 362.465 51.104C364.428 49.0987 365.409 46.5173 365.409 43.36C365.409 40.2027 364.428 37.6427 362.465 35.68C360.545 33.6747 358.028 32.672 354.913 32.672C351.841 32.672 349.345 33.6747 347.425 35.68C345.505 37.6427 344.545 40.2027 344.545 43.36C344.545 46.5173 345.505 49.0987 347.425 51.104C349.345 53.0667 351.841 54.048 354.913 54.048ZM411.121 60.64C408.006 60.64 405.212 59.9147 402.737 58.464C400.262 56.9707 398.321 54.9227 396.913 52.32C395.548 49.6747 394.865 46.688 394.865 43.36C394.865 40.032 395.548 37.0667 396.913 34.464C398.321 31.8187 400.262 29.7707 402.737 28.32C405.212 26.8267 408.006 26.08 411.121 26.08C413.809 26.08 416.198 26.6347 418.289 27.744C420.38 28.8107 422.086 30.1547 423.409 31.776V14.88H430.769V60H425.265L423.729 54.624C422.364 56.288 420.614 57.7173 418.481 58.912C416.348 60.064 413.894 60.64 411.121 60.64ZM412.913 54.048C416.028 54.048 418.545 53.0667 420.465 51.104C422.428 49.0987 423.409 46.5173 423.409 43.36C423.409 40.2027 422.428 37.6427 420.465 35.68C418.545 33.6747 416.028 32.672 412.913 32.672C409.841 32.672 407.345 33.6747 405.425 35.68C403.505 37.6427 402.545 40.2027 402.545 43.36C402.545 46.5173 403.505 49.0987 405.425 51.104C407.345 53.0667 409.841 54.048 412.913 54.048ZM455.282 60.64C451.869 60.64 448.797 59.9147 446.066 58.464C443.378 56.9707 441.266 54.9227 439.73 52.32C438.237 49.6747 437.49 46.688 437.49 43.36C437.49 40.032 438.237 37.0667 439.73 34.464C441.266 31.8187 443.378 29.7707 446.066 28.32C448.797 26.8267 451.869 26.08 455.282 26.08C458.695 26.08 461.746 26.8267 464.434 28.32C467.165 29.7707 469.277 31.8187 470.77 34.464C472.306 37.0667 473.074 40.032 473.074 43.36C473.074 46.688 472.306 49.6747 470.77 52.32C469.277 54.9227 467.165 56.9707 464.434 58.464C461.746 59.9147 458.695 60.64 455.282 60.64ZM455.282 53.92C458.269 53.92 460.701 52.96 462.578 51.04C464.455 49.0773 465.394 46.5173 465.394 43.36C465.394 40.2027 464.455 37.664 462.578 35.744C460.701 33.7813 458.269 32.8 455.282 32.8C452.295 32.8 449.863 33.7813 447.986 35.744C446.109 37.664 445.17 40.2027 445.17 43.36C445.17 46.5173 446.109 49.0773 447.986 51.04C449.863 52.96 452.295 53.92 455.282 53.92ZM494.897 60.64C491.569 60.64 488.582 59.9147 485.937 58.464C483.291 56.9707 481.222 54.9227 479.729 52.32C478.278 49.6747 477.553 46.688 477.553 43.36C477.553 40.032 478.278 37.0667 479.729 34.464C481.222 31.8187 483.291 29.7707 485.937 28.32C488.582 26.8267 491.569 26.08 494.897 26.08C498.566 26.08 501.809 26.9973 504.625 28.832C507.483 30.624 509.51 33.184 510.705 36.512L503.793 37.664C503.067 36.2133 501.937 35.04 500.401 34.144C498.907 33.248 497.222 32.8 495.345 32.8C492.358 32.8 489.926 33.7813 488.049 35.744C486.171 37.7067 485.233 40.2453 485.233 43.36C485.233 46.4747 486.171 49.0133 488.049 50.976C489.926 52.9387 492.358 53.92 495.345 53.92C497.307 53.92 499.057 53.472 500.593 52.576C502.129 51.6373 503.281 50.4213 504.049 48.928L510.961 50.08C509.766 53.4507 507.697 56.0533 504.753 57.888C501.809 59.7227 498.523 60.64 494.897 60.64ZM528.066 60.64C524.311 60.64 521.175 59.7653 518.658 58.016C516.183 56.224 514.583 53.7707 513.858 50.656L520.962 49.44C521.516 51.0187 522.455 52.2347 523.778 53.088C525.143 53.9413 526.764 54.368 528.642 54.368C530.263 54.368 531.628 54.0693 532.738 53.472C533.847 52.8747 534.402 51.9573 534.402 50.72C534.402 49.568 533.826 48.6933 532.674 48.096C531.522 47.456 529.751 46.816 527.362 46.176C524.972 45.4933 522.988 44.8107 521.41 44.128C519.831 43.4453 518.466 42.4427 517.314 41.12C516.204 39.7973 515.65 38.048 515.65 35.872C515.65 32.7147 516.866 30.304 519.298 28.64C521.73 26.9333 524.759 26.08 528.385 26.08C531.671 26.08 534.508 26.9333 536.898 28.64C539.287 30.304 540.951 32.608 541.89 35.552L535.042 36.704C534.444 35.296 533.57 34.2293 532.418 33.504C531.308 32.736 529.986 32.352 528.45 32.352C526.999 32.352 525.762 32.6507 524.738 33.248C523.756 33.8453 523.266 34.656 523.266 35.68C523.266 36.8747 523.863 37.8133 525.058 38.496C526.252 39.136 528.087 39.7973 530.562 40.48C532.866 41.12 534.786 41.8027 536.322 42.528C537.9 43.2107 539.223 44.2133 540.29 45.536C541.399 46.816 541.954 48.48 541.954 50.528C541.954 52.4053 541.442 54.112 540.418 55.648C539.394 57.1413 537.836 58.3573 535.746 59.296C533.698 60.192 531.138 60.64 528.066 60.64Z" fill="black"/>
<defs>
<linearGradient id="paint0_linear_7882_9" x1="-1.0674e-06" y1="4.00018e-06" x2="84.9999" y2="85.0943" gradientUnits="userSpaceOnUse">
<stop stop-color="#68A5FF"/>
<stop offset="0.5" stop-color="#307DF0"/>
<stop offset="1" stop-color="#307DF0"/>
</linearGradient>
</defs>
</svg>
